{
.appVersion = "895";
copyright = "Copyright 2016 Google Inc. All Rights Reserved.";
customParameters = (
{
name = description;
value = "Designed by Monotype design team.";
},
{
name = license;
value = "This Font Software is licensed under the SIL Open Font License, Version 1.1. This Font Software is distributed on an \"AS IS\" BASIS, WITHOUT WARRANTIES OR CONDITIONS OF ANY KIND, either express or implied. See the SIL Open Font License for the specific language, permissions and limitations governing your use of this Font Software.";
},
{
name = licenseURL;
value = "http://scripts.sil.org/OFL";
},
{
name = vendorID;
value = GOOG;
},
{
name = trademark;
value = "Noto is a trademark of Google Inc.";
},
{
name = fsType;
value = ();
},
{
name = panose;
value = (
2,
11,
5,
2,
4,
5,
4,
2,
2,
4
);
},
{
name = unicodeRanges;
value = (
57
);
},
{
name = codePageRanges;
value = (
1252
);
}
);
date = "2016-11-10 14:18:01 +0000";
designer = "Monotype Design Team";
designerURL = "http://www.monotype.com/studio";
familyName = "Noto Sans Old South Arabian";
fontMaster = (
{
ascender = 2189;
capHeight = 1462;
customParameters = (
{
name = typoAscender;
value = 2189;
},
{
name = typoDescender;
value = -600;
},
{
name = typoLineGap;
value = 0;
},
{
name = winAscent;
value = 2189;
},
{
name = winDescent;
value = 600;
},
{
name = hheaAscender;
value = 2189;
},
{
name = hheaDescender;
value = -600;
},
{
name = underlinePosition;
value = -292;
},
{
name = underlineThickness;
value = 150;
}
);
descender = -600;
id = "2A3D9194-9EFB-4159-93A3-A212651684B7";
weightValue = 400;
widthValue = 5;
xHeight = 1098;
}
);
glyphs = (
{
glyphname = .notdef;
lastChange = "2016-11-10 14:17:47 +0000";
layers = (
{
layerId = "2A3D9194-9EFB-4159-93A3-A212651684B7";
paths = (
{
closed = 1;
nodes = (
"922 0 LINE",
"922 1462 LINE",
"102 1462 LINE",
"102 0 LINE"
);
},
{
closed = 1;
nodes = (
"201 1364 LINE",
"823 1364 LINE",
"823 98 LINE",
"201 98 LINE"
);
}
);
width = 1024;
}
);
note = .notdef;
},
{
glyphname = g4;
lastChange = "2016-11-10 14:17:47 +0000";
layers = (
{
layerId = "2A3D9194-9EFB-4159-93A3-A212651684B7";
paths = (
{
closed = 1;
nodes = (
"775 0 LINE",
"775 1019 LINE",
"1031 1043 OFFCURVE",
"1160 1179 OFFCURVE",
"1160 1415 CURVE SMOOTH",
"1160 1760 LINE",
"990 1760 LINE",
"990 1422 LINE SMOOTH",
"990 1249 OFFCURVE",
"895 1171 OFFCURVE",
"690 1171 CURVE SMOOTH",
"486 1171 OFFCURVE",
"390 1250 OFFCURVE",
"390 1422 CURVE SMOOTH",
"390 1760 LINE",
"220 1760 LINE",
"220 1415 LINE SMOOTH",
"220 1179 OFFCURVE",
"349 1044 OFFCURVE",
"605 1020 CURVE",
"605 0 LINE"
);
}
);
width = 1380;
}
);
note = g4;
},
{
glyphname = g5;
lastChange = "2016-11-10 14:17:47 +0000";
layers = (
{
layerId = "2A3D9194-9EFB-4159-93A3-A212651684B7";
paths = (
{
closed = 1;
nodes = (
"729 0 LINE",
"729 1790 LINE",
"100 1437 LINE",
"175 1303 LINE",
"559 1518 LINE",
"559 0 LINE"
);
}
);
width = 949;
}
);
note = g5;
},
{
glyphname = g6;
lastChange = "2016-11-10 14:17:47 +0000";
layers = (
{
layerId = "2A3D9194-9EFB-4159-93A3-A212651684B7";
paths = (
{
closed = 1;
nodes = (
"775 0 LINE",
"775 1019 LINE",
"1031 1043 OFFCURVE",
"1160 1179 OFFCURVE",
"1160 1415 CURVE SMOOTH",
"1160 1760 LINE",
"990 1760 LINE",
"990 1422 LINE SMOOTH",
"990 1266 OFFCURVE",
"910 1195 OFFCURVE",
"775 1176 CURVE",
"775 1760 LINE",
"605 1760 LINE",
"605 1176 LINE",
"470 1195 OFFCURVE",
"390 1266 OFFCURVE",
"390 1422 CURVE SMOOTH",
"390 1760 LINE",
"220 1760 LINE",
"220 1415 LINE SMOOTH",
"220 1179 OFFCURVE",
"349 1044 OFFCURVE",
"605 1020 CURVE",
"605 0 LINE"
);
}
);
width = 1380;
}
);
note = g6;
},
{
glyphname = g7;
lastChange = "2016-11-10 14:17:47 +0000";
layers = (
{
layerId = "2A3D9194-9EFB-4159-93A3-A212651684B7";
paths = (
{
closed = 1;
nodes = (
"968 1790 LINE",
"120 1294 LINE",
"120 1222 LINE",
"656 880 LINE",
"120 538 LINE",
"120 466 LINE",
"968 -30 LINE"
);
},
{
closed = 1;
nodes = (
"364 499 LINE",
"364 512 LINE",
"798 789 LINE",
"798 253 LINE"
);
},
{
closed = 1;
nodes = (
"364 1248 LINE",
"364 1261 LINE",
"798 1507 LINE",
"798 970 LINE"
);
}
);
width = 1188;
}
);
note = g7;
},
{
glyphname = g8;
lastChange = "2016-11-10 14:17:47 +0000";
layers = (
{
layerId = "2A3D9194-9EFB-4159-93A3-A212651684B7";
paths = (
{
closed = 1;
nodes = (
"640 0 LINE",
"640 579 LINE",
"787 618 OFFCURVE",
"890 748 OFFCURVE",
"890 891 CURVE SMOOTH",
"890 1036 OFFCURVE",
"787 1164 OFFCURVE",
"640 1204 CURVE",
"640 1760 LINE",
"470 1760 LINE",
"470 1204 LINE",
"322 1164 OFFCURVE",
"220 1032 OFFCURVE",
"220 891 CURVE SMOOTH",
"220 747 OFFCURVE",
"325 618 OFFCURVE",
"470 579 CURVE",
"470 0 LINE"
);
},
{
closed = 1;
nodes = (
"464 723 OFFCURVE",
"385 799 OFFCURVE",
"385 892 CURVE SMOOTH",
"385 987 OFFCURVE",
"464 1061 OFFCURVE",
"555 1061 CURVE SMOOTH",
"648 1061 OFFCURVE",
"725 987 OFFCURVE",
"725 892 CURVE SMOOTH",
"725 799 OFFCURVE",
"648 723 OFFCURVE",
"555 723 CURVE SMOOTH"
);
}
);
width = 1110;
}
);
note = g8;
},
{
glyphname = g9;
lastChange = "2016-11-10 14:17:47 +0000";
layers = (
{
layerId = "2A3D9194-9EFB-4159-93A3-A212651684B7";
paths = (
{
closed = 1;
nodes = (
"734 454 OFFCURVE",
"818 472 OFFCURVE",
"892 508 CURVE SMOOTH",
"1039 579 OFFCURVE",
"1124 714 OFFCURVE",
"1124 873 CURVE SMOOTH",
"1124 953 OFFCURVE",
"1104 1025 OFFCURVE",
"1064 1090 CURVE SMOOTH",
"983 1219 OFFCURVE",
"829 1296 OFFCURVE",
"640 1296 CURVE SMOOTH",
"545 1296 OFFCURVE",
"462 1278 OFFCURVE",
"389 1241 CURVE SMOOTH",
"243 1168 OFFCURVE",
"160 1033 OFFCURVE",
"160 873 CURVE SMOOTH",
"160 793 OFFCURVE",
"180 721 OFFCURVE",
"220 657 CURVE SMOOTH",
"300 529 OFFCURVE",
"452 454 OFFCURVE",
"640 454 CURVE SMOOTH"
);
},
{
closed = 1;
nodes = (
"412 637 OFFCURVE",
"325 735 OFFCURVE",
"325 874 CURVE SMOOTH",
"325 1010 OFFCURVE",
"408 1109 OFFCURVE",
"557 1137 CURVE",
"557 613 LINE"
);
},
{
closed = 1;
nodes = (
"727 1136 LINE",
"875 1108 OFFCURVE",
"959 1011 OFFCURVE",
"959 874 CURVE SMOOTH",
"959 738 OFFCURVE",
"875 640 OFFCURVE",
"727 613 CURVE"
);
}
);
width = 1284;
}
);
note = g9;
},
{
glyphname = g10;
lastChange = "2016-11-10 14:17:47 +0000";
layers = (
{
layerId = "2A3D9194-9EFB-4159-93A3-A212651684B7";
paths = (
{
closed = 1;
nodes = (
"818 459 LINE",
"818 519 LINE",
"388 880 LINE",
"818 1241 LINE",
"818 1301 LINE",
"160 1790 LINE",
"160 1589 LINE",
"578 1277 LINE",
"578 1264 LINE",
"160 910 LINE",
"160 850 LINE",
"578 496 LINE",
"578 483 LINE",
"160 171 LINE",
"160 -30 LINE"
);
}
);
width = 978;
}
);
note = g10;
},
{
glyphname = g11;
lastChange = "2016-11-10 14:17:47 +0000";
layers = (
{
layerId = "2A3D9194-9EFB-4159-93A3-A212651684B7";
paths = (
{
closed = 1;
nodes = (
"287 -3 OFFCURVE",
"399 53 OFFCURVE",
"497 140 CURVE SMOOTH",
"692 312 OFFCURVE",
"806 592 OFFCURVE",
"806 877 CURVE SMOOTH",
"806 1023 OFFCURVE",
"779 1161 OFFCURVE",
"726 1291 CURVE SMOOTH",
"619 1551 OFFCURVE",
"416 1731 OFFCURVE",
"160 1790 CURVE",
"160 1625 LINE",
"252 1599 OFFCURVE",
"334 1550 OFFCURVE",
"406 1478 CURVE SMOOTH",
"549 1333 OFFCURVE",
"631 1109 OFFCURVE",
"631 877 CURVE SMOOTH",
"631 763 OFFCURVE",
"611 653 OFFCURVE",
"572 548 CURVE SMOOTH",
"492 337 OFFCURVE",
"347 193 OFFCURVE",
"160 130 CURVE",
"160 -30 LINE"
);
}
);
width = 1026;
}
);
note = g11;
},
{
glyphname = g12;
lastChange = "2016-11-10 14:17:47 +0000";
layers = (
{
layerId = "2A3D9194-9EFB-4159-93A3-A212651684B7";
paths = (
{
closed = 1;
nodes = (
"390 0 LINE",
"390 1610 LINE",
"770 1610 LINE",
"770 0 LINE",
"940 0 LINE",
"940 1760 LINE",
"220 1760 LINE",
"220 0 LINE"
);
}
);
width = 1160;
}
);
note = g12;
},
{
glyphname = g13;
lastChange = "2016-11-10 14:17:47 +0000";
layers = (
{
layerId = "2A3D9194-9EFB-4159-93A3-A212651684B7";
paths = (
{
closed = 1;
nodes = (
"346 0 LINE",
"660 678 LINE",
"974 0 LINE",
"1160 0 LINE",
"753 879 LINE",
"1160 1760 LINE",
"975 1760 LINE",
"660 1080 LINE",
"345 1760 LINE",
"160 1760 LINE",
"567 879 LINE",
"160 0 LINE"
);
}
);
width = 1320;
}
);
note = g13;
},
{
glyphname = g14;
lastChange = "2016-11-10 14:17:47 +0000";
layers = (
{
layerId = "2A3D9194-9EFB-4159-93A3-A212651684B7";
paths = (
{
closed = 1;
nodes = (
"390 0 LINE",
"390 850 LINE",
"770 850 LINE",
"770 0 LINE",
"940 0 LINE",
"940 1000 LINE",
"665 1000 LINE",
"665 1760 LINE",
"495 1760 LINE",
"495 1000 LINE",
"220 1000 LINE",
"220 0 LINE"
);
}
);
width = 1160;
}
);
note = g14;
},
{
glyphname = g15;
lastChange = "2016-11-10 14:17:47 +0000";
layers = (
{
layerId = "2A3D9194-9EFB-4159-93A3-A212651684B7";
paths = (
{
closed = 1;
nodes = (
"390 0 LINE",
"390 850 LINE",
"770 850 LINE",
"770 0 LINE",
"940 0 LINE",
"940 1000 LINE",
"384 1000 LINE",
"644 1760 LINE",
"479 1760 LINE",
"220 1000 LINE",
"220 0 LINE"
);
}
);
width = 1160;
}
);
note = g15;
},
{
glyphname = g16;
lastChange = "2016-11-10 14:17:47 +0000";
layers = (
{
layerId = "2A3D9194-9EFB-4159-93A3-A212651684B7";
paths = (
{
closed = 1;
nodes = (
"800 0 LINE",
"800 1040 LINE",
"390 1040 LINE",
"390 1760 LINE",
"220 1760 LINE",
"220 890 LINE",
"630 890 LINE",
"630 0 LINE"
);
}
);
width = 1020;
}
);
note = g16;
},
{
glyphname = g17;
lastChange = "2016-11-10 14:17:47 +0000";
layers = (
{
layerId = "2A3D9194-9EFB-4159-93A3-A212651684B7";
paths = (
{
closed = 1;
nodes = (
"1125 0 LINE",
"1125 650 LINE",
"775 650 LINE",
"775 1020 LINE",
"1031 1044 OFFCURVE",
"1160 1179 OFFCURVE",
"1160 1415 CURVE SMOOTH",
"1160 1760 LINE",
"990 1760 LINE",
"990 1422 LINE SMOOTH",
"990 1249 OFFCURVE",
"895 1171 OFFCURVE",
"690 1171 CURVE SMOOTH",
"486 1171 OFFCURVE",
"390 1250 OFFCURVE",
"390 1422 CURVE SMOOTH",
"390 1760 LINE",
"220 1760 LINE",
"220 1415 LINE SMOOTH",
"220 1179 OFFCURVE",
"349 1044 OFFCURVE",
"605 1020 CURVE",
"605 500 LINE",
"955 500 LINE",
"955 0 LINE"
);
}
);
width = 1380;
}
);
note = g17;
},
{
glyphname = g18;
lastChange = "2016-11-10 14:17:47 +0000";
layers = (
{
layerId = "2A3D9194-9EFB-4159-93A3-A212651684B7";
paths = (
{
closed = 1;
nodes = (
"390 0 LINE",
"390 338 LINE SMOOTH",
"390 481 OFFCURVE",
"462 563 OFFCURVE",
"605 583 CURVE",
"605 0 LINE",
"775 0 LINE",
"775 583 LINE",
"918 563 OFFCURVE",
"990 481 OFFCURVE",
"990 338 CURVE SMOOTH",
"990 0 LINE",
"1160 0 LINE",
"1160 345 LINE SMOOTH",
"1160 581 OFFCURVE",
"1031 716 OFFCURVE",
"775 740 CURVE",
"775 1153 LINE",
"922 1192 OFFCURVE",
"1025 1322 OFFCURVE",
"1025 1465 CURVE SMOOTH",
"1025 1522 OFFCURVE",
"1010 1576 OFFCURVE",
"979 1627 CURVE SMOOTH",
"918 1728 OFFCURVE",
"806 1790 OFFCURVE",
"690 1790 CURVE SMOOTH",
"507 1790 OFFCURVE",
"355 1638 OFFCURVE",
"355 1465 CURVE SMOOTH",
"355 1321 OFFCURVE",
"460 1192 OFFCURVE",
"605 1153 CURVE",
"605 740 LINE",
"349 716 OFFCURVE",
"220 581 OFFCURVE",
"220 345 CURVE SMOOTH",
"220 0 LINE"
);
},
{
closed = 1;
nodes = (
"599 1297 OFFCURVE",
"520 1373 OFFCURVE",
"520 1466 CURVE SMOOTH",
"520 1561 OFFCURVE",
"599 1635 OFFCURVE",
"690 1635 CURVE SMOOTH",
"783 1635 OFFCURVE",
"860 1561 OFFCURVE",
"860 1466 CURVE SMOOTH",
"860 1373 OFFCURVE",
"783 1297 OFFCURVE",
"690 1297 CURVE SMOOTH"
);
}
);
width = 1380;
}
);
note = g18;
},
{
glyphname = g19;
lastChange = "2016-11-10 14:17:47 +0000";
layers = (
{
layerId = "2A3D9194-9EFB-4159-93A3-A212651684B7";
paths = (
{
closed = 1;
nodes = (
"355 0 LINE",
"557 297 LINE",
"760 0 LINE",
"955 0 LINE",
"655 440 LINE",
"955 880 LINE",
"655 1320 LINE",
"955 1761 LINE",
"760 1761 LINE",
"557 1463 LINE",
"355 1761 LINE",
"160 1761 LINE",
"460 1320 LINE",
"160 880 LINE",
"460 440 LINE",
"160 0 LINE"
);
},
{
closed = 1;
nodes = (
"355 880 LINE",
"557 1177 LINE",
"759 880 LINE",
"557 583 LINE"
);
}
);
width = 1115;
}
);
note = g19;
},
{
glyphname = g20;
lastChange = "2016-11-10 14:17:47 +0000";
layers = (
{
layerId = "2A3D9194-9EFB-4159-93A3-A212651684B7";
paths = (
{
closed = 1;
nodes = (
"674 0 LINE",
"1123 880 LINE",
"674 1760 LINE",
"609 1760 LINE",
"160 880 LINE",
"609 0 LINE"
);
},
{
closed = 1;
nodes = (
"354 880 LINE",
"641 1466 LINE",
"929 880 LINE",
"641 294 LINE"
);
}
);
width = 1283;
}
);
note = g20;
},
{
glyphname = g21;
lastChange = "2016-11-10 14:17:47 +0000";
layers = (
{
layerId = "2A3D9194-9EFB-4159-93A3-A212651684B7";
paths = (
{
closed = 1;
nodes = (
"390 0 LINE",
"390 850 LINE",
"770 850 LINE",
"770 0 LINE",
"940 0 LINE",
"940 1000 LINE",
"665 1000 LINE",
"665 1423 LINE",
"390 1423 LINE",
"390 1760 LINE",
"220 1760 LINE",
"220 1273 LINE",
"495 1273 LINE",
"495 1000 LINE",
"220 1000 LINE",
"220 0 LINE"
);
}
);
width = 1160;
}
);
note = g21;
},
{
glyphname = g22;
lastChange = "2016-11-10 14:17:47 +0000";
layers = (
{
layerId = "2A3D9194-9EFB-4159-93A3-A212651684B7";
paths = (
{
closed = 1;
nodes = (
"554 558 OFFCURVE",
"609 573 OFFCURVE",
"661 602 CURVE SMOOTH",
"764 660 OFFCURVE",
"830 766 OFFCURVE",
"830 881 CURVE SMOOTH",
"830 938 OFFCURVE",
"815 992 OFFCURVE",
"784 1043 CURVE SMOOTH",
"723 1144 OFFCURVE",
"611 1206 OFFCURVE",
"495 1206 CURVE SMOOTH",
"312 1206 OFFCURVE",
"160 1054 OFFCURVE",
"160 881 CURVE SMOOTH",
"160 824 OFFCURVE",
"176 771 OFFCURVE",
"207 721 CURVE SMOOTH",
"269 620 OFFCURVE",
"379 558 OFFCURVE",
"495 558 CURVE SMOOTH"
);
},
{
closed = 1;
nodes = (
"404 713 OFFCURVE",
"325 789 OFFCURVE",
"325 882 CURVE SMOOTH",
"325 977 OFFCURVE",
"404 1051 OFFCURVE",
"495 1051 CURVE SMOOTH",
"588 1051 OFFCURVE",
"665 977 OFFCURVE",
"665 882 CURVE SMOOTH",
"665 789 OFFCURVE",
"588 713 OFFCURVE",
"495 713 CURVE SMOOTH"
);
}
);
width = 990;
}
);
note = g22;
},
{
glyphname = g23;
lastChange = "2016-11-10 14:17:47 +0000";
layers = (
{
layerId = "2A3D9194-9EFB-4159-93A3-A212651684B7";
paths = (
{
closed = 1;
nodes = (
"940 0 LINE",
"940 1760 LINE",
"220 1760 LINE",
"220 0 LINE"
);
},
{
closed = 1;
nodes = (
"390 830 LINE",
"770 830 LINE",
"770 150 LINE",
"390 150 LINE"
);
},
{
closed = 1;
nodes = (
"390 1610 LINE",
"770 1610 LINE",
"770 980 LINE",
"390 980 LINE"
);
}
);
width = 1160;
}
);
note = g23;
},
{
glyphname = g24;
lastChange = "2016-11-10 14:17:47 +0000";
layers = (
{
layerId = "2A3D9194-9EFB-4159-93A3-A212651684B7";
paths = (
{
closed = 1;
nodes = (
"765 0 LINE",
"765 1760 LINE",
"120 1760 LINE",
"120 1610 LINE",
"595 1610 LINE",
"595 0 LINE"
);
}
);
width = 985;
}
);
note = g24;
},
{
glyphname = g25;
lastChange = "2016-11-10 14:17:47 +0000";
layers = (
{
layerId = "2A3D9194-9EFB-4159-93A3-A212651684B7";
paths = (
{
closed = 1;
nodes = (
"758 0 LINE",
"758 1760 LINE",
"588 1760 LINE",
"588 1110 LINE",
"175 1396 LINE",
"120 1396 LINE",
"120 413 LINE",
"175 413 LINE",
"588 699 LINE",
"588 0 LINE"
);
},
{
closed = 1;
nodes = (
"290 1124 LINE",
"588 913 LINE",
"588 900 LINE",
"290 685 LINE"
);
}
);
width = 978;
}
);
note = g25;
},
{
glyphname = g26;
lastChange = "2016-11-10 14:17:47 +0000";
layers = (
{
layerId = "2A3D9194-9EFB-4159-93A3-A212651684B7";
paths = (
{
closed = 1;
nodes = (
"619 0 LINE",
"619 1610 LINE",
"999 1610 LINE",
"999 0 LINE",
"1169 0 LINE",
"1169 1760 LINE",
"449 1760 LINE",
"100 1216 LINE",
"243 1139 LINE",
"449 1463 LINE",
"449 0 LINE"
);
}
);
width = 1389;
}
);
note = g26;
},
{
glyphname = g27;
lastChange = "2016-11-10 14:17:47 +0000";
layers = (
{
layerId = "2A3D9194-9EFB-4159-93A3-A212651684B7";
paths = (
{
closed = 1;
nodes = (
"1190 0 LINE",
"1190 1760 LINE",
"220 1760 LINE",
"220 0 LINE"
);
},
{
closed = 1;
nodes = (
"390 1610 LINE",
"620 1610 LINE",
"620 151 LINE",
"390 151 LINE"
);
},
{
closed = 1;
nodes = (
"790 1610 LINE",
"1020 1610 LINE",
"1020 151 LINE",
"790 151 LINE"
);
}
);
width = 1410;
}
);
note = g27;
},
{
glyphname = g28;
lastChange = "2016-11-10 14:17:47 +0000";
layers = (
{
layerId = "2A3D9194-9EFB-4159-93A3-A212651684B7";
paths = (
{
closed = 1;
nodes = (
"936 0 LINE",
"624 889 LINE",
"936 1761 LINE",
"160 1761 LINE",
"471 889 LINE",
"160 0 LINE"
);
},
{
closed = 1;
nodes = (
"548 693 LINE",
"703 151 LINE",
"392 151 LINE"
);
},
{
closed = 1;
nodes = (
"395 1610 LINE",
"700 1610 LINE",
"548 1126 LINE"
);
}
);
width = 1096;
}
);
note = g28;
},
{
glyphname = g29;
lastChange = "2016-11-10 14:17:47 +0000";
layers = (
{
layerId = "2A3D9194-9EFB-4159-93A3-A212651684B7";
paths = (
{
closed = 1;
nodes = (
"390 0 LINE",
"390 530 LINE",
"770 530 LINE",
"770 0 LINE",
"940 0 LINE",
"940 1760 LINE",
"770 1760 LINE",
"770 1280 LINE",
"390 1280 LINE",
"390 1760 LINE",
"220 1760 LINE",
"220 0 LINE"
);
},
{
closed = 1;
nodes = (
"390 1130 LINE",
"770 1130 LINE",
"770 680 LINE",
"390 680 LINE"
);
}
);
width = 1160;
}
);
note = g29;
},
{
glyphname = g30;
lastChange = "2016-11-10 14:17:47 +0000";
layers = (
{
layerId = "2A3D9194-9EFB-4159-93A3-A212651684B7";
paths = (
{
closed = 1;
nodes = (
"640 0 LINE",
"640 1153 LINE",
"787 1192 OFFCURVE",
"890 1322 OFFCURVE",
"890 1465 CURVE SMOOTH",
"890 1522 OFFCURVE",
"875 1576 OFFCURVE",
"844 1627 CURVE SMOOTH",
"783 1728 OFFCURVE",
"671 1790 OFFCURVE",
"555 1790 CURVE SMOOTH",
"372 1790 OFFCURVE",
"220 1638 OFFCURVE",
"220 1465 CURVE SMOOTH",
"220 1321 OFFCURVE",
"325 1192 OFFCURVE",
"470 1153 CURVE",
"470 0 LINE"
);
},
{
closed = 1;
nodes = (
"464 1297 OFFCURVE",
"385 1373 OFFCURVE",
"385 1466 CURVE SMOOTH",
"385 1561 OFFCURVE",
"464 1635 OFFCURVE",
"555 1635 CURVE SMOOTH",
"648 1635 OFFCURVE",
"725 1561 OFFCURVE",
"725 1466 CURVE SMOOTH",
"725 1373 OFFCURVE",
"648 1297 OFFCURVE",
"555 1297 CURVE SMOOTH"
);
}
);
width = 1110;
}
);
note = g30;
},
{
glyphname = g31;
lastChange = "2016-11-10 14:17:47 +0000";
layers = (
{
layerId = "2A3D9194-9EFB-4159-93A3-A212651684B7";
paths = (
{
closed = 1;
nodes = (
"614 -30 OFFCURVE",
"669 -15 OFFCURVE",
"721 14 CURVE SMOOTH",
"824 72 OFFCURVE",
"890 178 OFFCURVE",
"890 293 CURVE SMOOTH",
"890 438 OFFCURVE",
"787 566 OFFCURVE",
"640 606 CURVE",
"640 1153 LINE",
"787 1192 OFFCURVE",
"890 1322 OFFCURVE",
"890 1465 CURVE SMOOTH",
"890 1522 OFFCURVE",
"875 1576 OFFCURVE",
"844 1627 CURVE SMOOTH",
"783 1728 OFFCURVE",
"671 1790 OFFCURVE",
"555 1790 CURVE SMOOTH",
"372 1790 OFFCURVE",
"220 1638 OFFCURVE",
"220 1465 CURVE SMOOTH",
"220 1321 OFFCURVE",
"325 1192 OFFCURVE",
"470 1153 CURVE",
"470 606 LINE",
"322 566 OFFCURVE",
"220 434 OFFCURVE",
"220 293 CURVE SMOOTH",
"220 236 OFFCURVE",
"236 183 OFFCURVE",
"267 133 CURVE SMOOTH",
"329 32 OFFCURVE",
"439 -30 OFFCURVE",
"555 -30 CURVE SMOOTH"
);
},
{
closed = 1;
nodes = (
"464 125 OFFCURVE",
"385 201 OFFCURVE",
"385 294 CURVE SMOOTH",
"385 389 OFFCURVE",
"464 463 OFFCURVE",
"555 463 CURVE SMOOTH",
"648 463 OFFCURVE",
"725 389 OFFCURVE",
"725 294 CURVE SMOOTH",
"725 201 OFFCURVE",
"648 125 OFFCURVE",
"555 125 CURVE SMOOTH"
);
},
{
closed = 1;
nodes = (
"464 1297 OFFCURVE",
"385 1373 OFFCURVE",
"385 1466 CURVE SMOOTH",
"385 1561 OFFCURVE",
"464 1635 OFFCURVE",
"555 1635 CURVE SMOOTH",
"648 1635 OFFCURVE",
"725 1561 OFFCURVE",
"725 1466 CURVE SMOOTH",
"725 1373 OFFCURVE",
"648 1297 OFFCURVE",
"555 1297 CURVE SMOOTH"
);
}
);
width = 1110;
}
);
note = g31;
},
{
glyphname = g32;
lastChange = "2016-11-10 14:17:47 +0000";
layers = (
{
layerId = "2A3D9194-9EFB-4159-93A3-A212651684B7";
paths = (
{
closed = 1;
nodes = (
"540 0 LINE",
"540 790 LINE",
"920 790 LINE",
"920 0 LINE",
"1090 0 LINE",
"1090 940 LINE",
"540 940 LINE",
"540 1153 LINE",
"687 1192 OFFCURVE",
"790 1322 OFFCURVE",
"790 1465 CURVE SMOOTH",
"790 1522 OFFCURVE",
"775 1576 OFFCURVE",
"744 1627 CURVE SMOOTH",
"683 1728 OFFCURVE",
"571 1790 OFFCURVE",
"455 1790 CURVE SMOOTH",
"272 1790 OFFCURVE",
"120 1638 OFFCURVE",
"120 1465 CURVE SMOOTH",
"120 1321 OFFCURVE",
"225 1192 OFFCURVE",
"370 1153 CURVE",
"370 0 LINE"
);
},
{
closed = 1;
nodes = (
"364 1297 OFFCURVE",
"285 1373 OFFCURVE",
"285 1466 CURVE SMOOTH",
"285 1561 OFFCURVE",
"364 1635 OFFCURVE",
"455 1635 CURVE SMOOTH",
"548 1635 OFFCURVE",
"625 1561 OFFCURVE",
"625 1466 CURVE SMOOTH",
"625 1373 OFFCURVE",
"548 1297 OFFCURVE",
"455 1297 CURVE SMOOTH"
);
}
);
width = 1310;
}
);
note = g32;
},
{
glyphname = g33;
lastChange = "2016-11-10 14:17:47 +0000";
layers = (
{
layerId = "2A3D9194-9EFB-4159-93A3-A212651684B7";
paths = (
{
closed = 1;
nodes = (
"470 0 LINE",
"470 1760 LINE",
"300 1760 LINE",
"300 0 LINE"
);
}
);
width = 770;
}
);
note = g33;
},
{
glyphname = g34;
lastChange = "2016-11-10 14:17:47 +0000";
layers = (
{
layerId = "2A3D9194-9EFB-4159-93A3-A212651684B7";
paths = (
{
closed = 1;
nodes = (
"968 0 LINE",
"968 1790 LINE",
"120 1294 LINE",
"120 1222 LINE",
"798 787 LINE",
"798 0 LINE"
);
},
{
closed = 1;
nodes = (
"364 1248 LINE",
"364 1261 LINE",
"798 1507 LINE",
"798 972 LINE"
);
}
);
width = 1188;
}
);
note = g34;
},
{
glyphname = g35;
lastChange = "2016-11-10 14:17:47 +0000";
layers = (
{
layerId = "2A3D9194-9EFB-4159-93A3-A212651684B7";
paths = (
{
closed = 1;
nodes = (
"940 0 LINE",
"940 1760 LINE",
"220 1760 LINE",
"220 0 LINE"
);
},
{
closed = 1;
nodes = (
"390 404 LINE",
"770 404 LINE",
"770 150 LINE",
"390 150 LINE"
);
},
{
closed = 1;
nodes = (
"390 806 LINE",
"770 806 LINE",
"770 554 LINE",
"390 554 LINE"
);
},
{
closed = 1;
nodes = (
"390 1208 LINE",
"770 1208 LINE",
"770 956 LINE",
"390 956 LINE"
);
},
{
closed = 1;
nodes = (
"390 1610 LINE",
"770 1610 LINE",
"770 1358 LINE",
"390 1358 LINE"
);
}
